ply
format ascii 1.0
element vertex 390
property float x
property float y
property float z
property uchar red
property uchar green
property uchar blue
end_header
-4.691789 -2.654245 9.457857 96 72 61
-4.691786 -2.654218 9.457863 76 65 61
-4.691779 -2.654258 9.457863 167 159 162
-4.691762 -2.654202 9.457853 155 165 171
-4.691728 -2.654192 9.457890 155 163 170
-4.691711 -2.654218 9.457861 167 170 173
-4.691685 -2.654312 9.457832 95 86 85
-4.691680 -2.654222 9.457850 224 233 242
-4.691680 -2.654222 9.457850 224 233 242
-4.691678 -2.654258 9.457850 69 76 92
-4.691678 -2.654258 9.457850 69 76 92
-4.691677 -2.654244 9.457850 38 34 34
-4.691670 -2.654214 9.457857 187 195 202
-4.691653 -2.654181 9.457866 166 176 182
-4.691638 -2.654280 9.457842 120 123 126
-4.691637 -2.654246 9.457854 196 204 211
-4.691617 -2.654293 9.457829 151 155 160
-4.691590 -2.654265 9.457842 176 187 201
-4.691593 -2.654227 9.457855 179 196 202
-4.691582 -2.654250 9.457850 186 202 210
-4.691582 -2.654250 9.457850 186 202 210
-4.691566 -2.654266 9.457836 63 59 59
-4.691516 -2.654269 9.457838 130 129 131
-4.691504 -2.654285 9.457826 63 56 65
-4.691509 -2.654276 9.457845 48 35 28
-4.691509 -2.654276 9.457845 48 35 28
-4.691504 -2.654253 9.457838 44 36 31
-4.691483 -2.654309 9.457801 107 109 108
-4.691495 -2.654303 9.457829 252 253 254
-4.691483 -2.654289 9.457825 255 231 199
-4.691494 -2.654208 9.457858 41 35 30
-4.691472 -2.654288 9.457821 255 169 120
-4.691481 -2.654243 9.457840 79 59 96
-4.691481 -2.654243 9.457840 79 59 96
-4.691467 -2.654300 9.457824 86 83 85
-4.691463 -2.654239 9.457838 255 180 127
-4.691462 -2.654214 9.457843 67 55 46
-4.691350 -2.654335 9.457788 103 109 108
-4.691354 -2.654327 9.457814 124 123 125
-4.691789 -2.654245 9.457857 96 72 61
-4.691786 -2.654218 9.457863 76 65 61
-4.691779 -2.654258 9.457863 167 159 162
-4.691762 -2.654202 9.457853 155 165 171
-4.691728 -2.654192 9.457890 155 163 170
-4.691711 -2.654218 9.457861 167 170 173
-4.691685 -2.654312 9.457832 95 86 85
-4.691680 -2.654222 9.457850 224 233 242
-4.691680 -2.654222 9.457850 224 233 242
-4.691678 -2.654258 9.457850 69 76 92
-4.691678 -2.654258 9.457850 69 76 92
-4.691677 -2.654244 9.457850 38 34 34
-4.691670 -2.654214 9.457857 187 195 202
-4.691653 -2.654181 9.457866 166 176 182
-4.691638 -2.654280 9.457842 120 123 126
-4.691637 -2.654246 9.457854 196 204 211
-4.691617 -2.654293 9.457829 151 155 160
-4.691590 -2.654265 9.457842 176 187 201
-4.691593 -2.654227 9.457855 179 196 202
-4.691582 -2.654250 9.457850 186 202 210
-4.691582 -2.654250 9.457850 186 202 210
-4.691566 -2.654266 9.457836 63 59 59
-4.691516 -2.654269 9.457838 130 129 131
-4.691504 -2.654285 9.457826 63 56 65
-4.691509 -2.654276 9.457845 48 35 28
-4.691509 -2.654276 9.457845 48 35 28
-4.691504 -2.654253 9.457838 44 36 31
-4.691483 -2.654309 9.457801 107 109 108
-4.691495 -2.654303 9.457829 252 253 254
-4.691483 -2.654289 9.457825 255 231 199
-4.691494 -2.654208 9.457858 41 35 30
-4.691472 -2.654288 9.457821 255 169 120
-4.691481 -2.654243 9.457840 79 59 96
-4.691481 -2.654243 9.457840 79 59 96
-4.691467 -2.654300 9.457824 86 83 85
-4.691463 -2.654239 9.457838 255 180 127
-4.691462 -2.654214 9.457843 67 55 46
-4.691350 -2.654335 9.457788 103 109 108
-4.691354 -2.654327 9.457814 124 123 125
-4.691789 -2.654245 9.457857 96 72 61
-4.691786 -2.654218 9.457863 76 65 61
-4.691779 -2.654258 9.457863 167 159 162
-4.691762 -2.654202 9.457853 155 165 171
-4.691728 -2.654192 9.457890 155 163 170
-4.691711 -2.654218 9.457861 167 170 173
-4.691685 -2.654312 9.457832 95 86 85
-4.691680 -2.654222 9.457850 224 233 242
-4.691680 -2.654222 9.457850 224 233 242
-4.691678 -2.654258 9.457850 69 76 92
-4.691678 -2.654258 9.457850 69 76 92
-4.691677 -2.654244 9.457850 38 34 34
-4.691670 -2.654214 9.457857 187 195 202
-4.691653 -2.654181 9.457866 166 176 182
-4.691638 -2.654280 9.457842 120 123 126
-4.691637 -2.654246 9.457854 196 204 211
-4.691617 -2.654293 9.457829 151 155 160
-4.691590 -2.654265 9.457842 176 187 201
-4.691593 -2.654227 9.457855 179 196 202
-4.691582 -2.654250 9.457850 186 202 210
-4.691582 -2.654250 9.457850 186 202 210
-4.691566 -2.654266 9.457836 63 59 59
-4.691516 -2.654269 9.457838 130 129 131
-4.691504 -2.654285 9.457826 63 56 65
-4.691509 -2.654276 9.457845 48 35 28
-4.691509 -2.654276 9.457845 48 35 28
-4.691504 -2.654253 9.457838 44 36 31
-4.691483 -2.654309 9.457801 107 109 108
-4.691495 -2.654303 9.457829 252 253 254
-4.691483 -2.654289 9.457825 255 231 199
-4.691494 -2.654208 9.457858 41 35 30
-4.691472 -2.654288 9.457821 255 169 120
-4.691481 -2.654243 9.457840 79 59 96
-4.691481 -2.654243 9.457840 79 59 96
-4.691467 -2.654300 9.457824 86 83 85
-4.691463 -2.654239 9.457838 255 180 127
-4.691462 -2.654214 9.457843 67 55 46
-4.691350 -2.654335 9.457788 103 109 108
-4.691354 -2.654327 9.457814 124 123 125
-4.691789 -2.654245 9.457857 96 72 61
-4.691786 -2.654218 9.457863 76 65 61
-4.691779 -2.654258 9.457863 167 159 162
-4.691762 -2.654202 9.457853 155 165 171
-4.691728 -2.654192 9.457890 155 163 170
-4.691711 -2.654218 9.457861 167 170 173
-4.691685 -2.654312 9.457832 95 86 85
-4.691680 -2.654222 9.457850 224 233 242
-4.691680 -2.654222 9.457850 224 233 242
-4.691678 -2.654258 9.457850 69 76 92
-4.691678 -2.654258 9.457850 69 76 92
-4.691677 -2.654244 9.457850 38 34 34
-4.691670 -2.654214 9.457857 187 195 202
-4.691653 -2.654181 9.457866 166 176 182
-4.691638 -2.654280 9.457842 120 123 126
-4.691637 -2.654246 9.457854 196 204 211
-4.691617 -2.654293 9.457829 151 155 160
-4.691590 -2.654265 9.457842 176 187 201
-4.691593 -2.654227 9.457855 179 196 202
-4.691582 -2.654250 9.457850 186 202 210
-4.691582 -2.654250 9.457850 186 202 210
-4.691566 -2.654266 9.457836 63 59 59
-4.691516 -2.654269 9.457838 130 129 131
-4.691504 -2.654285 9.457826 63 56 65
-4.691509 -2.654276 9.457845 48 35 28
-4.691509 -2.654276 9.457845 48 35 28
-4.691504 -2.654253 9.457838 44 36 31
-4.691483 -2.654309 9.457801 107 109 108
-4.691495 -2.654303 9.457829 252 253 254
-4.691483 -2.654289 9.457825 255 231 199
-4.691494 -2.654208 9.457858 41 35 30
-4.691472 -2.654288 9.457821 255 169 120
-4.691481 -2.654243 9.457840 79 59 96
-4.691481 -2.654243 9.457840 79 59 96
-4.691467 -2.654300 9.457824 86 83 85
-4.691463 -2.654239 9.457838 255 180 127
-4.691462 -2.654214 9.457843 67 55 46
-4.691350 -2.654335 9.457788 103 109 108
-4.691354 -2.654327 9.457814 124 123 125
-4.691789 -2.654245 9.457857 96 72 61
-4.691786 -2.654218 9.457863 76 65 61
-4.691779 -2.654258 9.457863 167 159 162
-4.691762 -2.654202 9.457853 155 165 171
-4.691728 -2.654192 9.457890 155 163 170
-4.691711 -2.654218 9.457861 167 170 173
-4.691685 -2.654312 9.457832 95 86 85
-4.691680 -2.654222 9.457850 224 233 242
-4.691680 -2.654222 9.457850 224 233 242
-4.691678 -2.654258 9.457850 69 76 92
-4.691678 -2.654258 9.457850 69 76 92
-4.691677 -2.654244 9.457850 38 34 34
-4.691670 -2.654214 9.457857 187 195 202
-4.691653 -2.654181 9.457866 166 176 182
-4.691638 -2.654280 9.457842 120 123 126
-4.691637 -2.654246 9.457854 196 204 211
-4.691617 -2.654293 9.457829 151 155 160
-4.691590 -2.654265 9.457842 176 187 201
-4.691593 -2.654227 9.457855 179 196 202
-4.691582 -2.654250 9.457850 186 202 210
-4.691582 -2.654250 9.457850 186 202 210
-4.691566 -2.654266 9.457836 63 59 59
-4.691516 -2.654269 9.457838 130 129 131
-4.691504 -2.654285 9.457826 63 56 65
-4.691509 -2.654276 9.457845 48 35 28
-4.691509 -2.654276 9.457845 48 35 28
-4.691504 -2.654253 9.457838 44 36 31
-4.691483 -2.654309 9.457801 107 109 108
-4.691495 -2.654303 9.457829 252 253 254
-4.691483 -2.654289 9.457825 255 231 199
-4.691494 -2.654208 9.457858 41 35 30
-4.691472 -2.654288 9.457821 255 169 120
-4.691481 -2.654243 9.457840 79 59 96
-4.691481 -2.654243 9.457840 79 59 96
-4.691467 -2.654300 9.457824 86 83 85
-4.691463 -2.654239 9.457838 255 180 127
-4.691462 -2.654214 9.457843 67 55 46
-4.691350 -2.654335 9.457788 103 109 108
-4.691354 -2.654327 9.457814 124 123 125
-4.691789 -2.654245 9.457857 96 72 61
-4.691786 -2.654218 9.457863 76 65 61
-4.691779 -2.654258 9.457863 167 159 162
-4.691762 -2.654202 9.457853 155 165 171
-4.691728 -2.654192 9.457890 155 163 170
-4.691711 -2.654218 9.457861 167 170 173
-4.691685 -2.654312 9.457832 95 86 85
-4.691680 -2.654222 9.457850 224 233 242
-4.691680 -2.654222 9.457850 224 233 242
-4.691678 -2.654258 9.457850 69 76 92
-4.691678 -2.654258 9.457850 69 76 92
-4.691677 -2.654244 9.457850 38 34 34
-4.691670 -2.654214 9.457857 187 195 202
-4.691653 -2.654181 9.457866 166 176 182
-4.691638 -2.654280 9.457842 120 123 126
-4.691637 -2.654246 9.457854 196 204 211
-4.691617 -2.654293 9.457829 151 155 160
-4.691590 -2.654265 9.457842 176 187 201
-4.691593 -2.654227 9.457855 179 196 202
-4.691582 -2.654250 9.457850 186 202 210
-4.691582 -2.654250 9.457850 186 202 210
-4.691566 -2.654266 9.457836 63 59 59
-4.691516 -2.654269 9.457838 130 129 131
-4.691504 -2.654285 9.457826 63 56 65
-4.691509 -2.654276 9.457845 48 35 28
-4.691509 -2.654276 9.457845 48 35 28
-4.691504 -2.654253 9.457838 44 36 31
-4.691483 -2.654309 9.457801 107 109 108
-4.691495 -2.654303 9.457829 252 253 254
-4.691483 -2.654289 9.457825 255 231 199
-4.691494 -2.654208 9.457858 41 35 30
-4.691472 -2.654288 9.457821 255 169 120
-4.691481 -2.654243 9.457840 79 59 96
-4.691481 -2.654243 9.457840 79 59 96
-4.691467 -2.654300 9.457824 86 83 85
-4.691463 -2.654239 9.457838 255 180 127
-4.691462 -2.654214 9.457843 67 55 46
-4.691350 -2.654335 9.457788 103 109 108
-4.691354 -2.654327 9.457814 124 123 125
-4.691789 -2.654245 9.457857 96 72 61
-4.691786 -2.654218 9.457863 76 65 61
-4.691779 -2.654258 9.457863 167 159 162
-4.691762 -2.654202 9.457853 155 165 171
-4.691728 -2.654192 9.457890 155 163 170
-4.691711 -2.654218 9.457861 167 170 173
-4.691685 -2.654312 9.457832 95 86 85
-4.691680 -2.654222 9.457850 224 233 242
-4.691680 -2.654222 9.457850 224 233 242
-4.691678 -2.654258 9.457850 69 76 92
-4.691678 -2.654258 9.457850 69 76 92
-4.691677 -2.654244 9.457850 38 34 34
-4.691670 -2.654214 9.457857 187 195 202
-4.691653 -2.654181 9.457866 166 176 182
-4.691638 -2.654280 9.457842 120 123 126
-4.691637 -2.654246 9.457854 196 204 211
-4.691617 -2.654293 9.457829 151 155 160
-4.691590 -2.654265 9.457842 176 187 201
-4.691593 -2.654227 9.457855 179 196 202
-4.691582 -2.654250 9.457850 186 202 210
-4.691582 -2.654250 9.457850 186 202 210
-4.691566 -2.654266 9.457836 63 59 59
-4.691516 -2.654269 9.457838 130 129 131
-4.691504 -2.654285 9.457826 63 56 65
-4.691509 -2.654276 9.457845 48 35 28
-4.691509 -2.654276 9.457845 48 35 28
-4.691504 -2.654253 9.457838 44 36 31
-4.691483 -2.654309 9.457801 107 109 108
-4.691495 -2.654303 9.457829 252 253 254
-4.691483 -2.654289 9.457825 255 231 199
-4.691494 -2.654208 9.457858 41 35 30
-4.691472 -2.654288 9.457821 255 169 120
-4.691481 -2.654243 9.457840 79 59 96
-4.691481 -2.654243 9.457840 79 59 96
-4.691467 -2.654300 9.457824 86 83 85
-4.691463 -2.654239 9.457838 255 180 127
-4.691462 -2.654214 9.457843 67 55 46
-4.691350 -2.654335 9.457788 103 109 108
-4.691354 -2.654327 9.457814 124 123 125
-4.691789 -2.654245 9.457857 96 72 61
-4.691786 -2.654218 9.457863 76 65 61
-4.691779 -2.654258 9.457863 167 159 162
-4.691762 -2.654202 9.457853 155 165 171
-4.691728 -2.654192 9.457890 155 163 170
-4.691711 -2.654218 9.457861 167 170 173
-4.691685 -2.654312 9.457832 95 86 85
-4.691680 -2.654222 9.457850 224 233 242
-4.691680 -2.654222 9.457850 224 233 242
-4.691678 -2.654258 9.457850 69 76 92
-4.691678 -2.654258 9.457850 69 76 92
-4.691677 -2.654244 9.457850 38 34 34
-4.691670 -2.654214 9.457857 187 195 202
-4.691653 -2.654181 9.457866 166 176 182
-4.691638 -2.654280 9.457842 120 123 126
-4.691637 -2.654246 9.457854 196 204 211
-4.691617 -2.654293 9.457829 151 155 160
-4.691590 -2.654265 9.457842 176 187 201
-4.691593 -2.654227 9.457855 179 196 202
-4.691582 -2.654250 9.457850 186 202 210
-4.691582 -2.654250 9.457850 186 202 210
-4.691566 -2.654266 9.457836 63 59 59
-4.691516 -2.654269 9.457838 130 129 131
-4.691504 -2.654285 9.457826 63 56 65
-4.691509 -2.654276 9.457845 48 35 28
-4.691509 -2.654276 9.457845 48 35 28
-4.691504 -2.654253 9.457838 44 36 31
-4.691483 -2.654309 9.457801 107 109 108
-4.691495 -2.654303 9.457829 252 253 254
-4.691483 -2.654289 9.457825 255 231 199
-4.691494 -2.654208 9.457858 41 35 30
-4.691472 -2.654288 9.457821 255 169 120
-4.691481 -2.654243 9.457840 79 59 96
-4.691481 -2.654243 9.457840 79 59 96
-4.691467 -2.654300 9.457824 86 83 85
-4.691463 -2.654239 9.457838 255 180 127
-4.691462 -2.654214 9.457843 67 55 46
-4.691350 -2.654335 9.457788 103 109 108
-4.691354 -2.654327 9.457814 124 123 125
-4.691789 -2.654245 9.457857 96 72 61
-4.691786 -2.654218 9.457863 76 65 61
-4.691779 -2.654258 9.457863 167 159 162
-4.691762 -2.654202 9.457853 155 165 171
-4.691728 -2.654192 9.457890 155 163 170
-4.691711 -2.654218 9.457861 167 170 173
-4.691685 -2.654312 9.457832 95 86 85
-4.691680 -2.654222 9.457850 224 233 242
-4.691680 -2.654222 9.457850 224 233 242
-4.691678 -2.654258 9.457850 69 76 92
-4.691678 -2.654258 9.457850 69 76 92
-4.691677 -2.654244 9.457850 38 34 34
-4.691670 -2.654214 9.457857 187 195 202
-4.691653 -2.654181 9.457866 166 176 182
-4.691638 -2.654280 9.457842 120 123 126
-4.691637 -2.654246 9.457854 196 204 211
-4.691617 -2.654293 9.457829 151 155 160
-4.691590 -2.654265 9.457842 176 187 201
-4.691593 -2.654227 9.457855 179 196 202
-4.691582 -2.654250 9.457850 186 202 210
-4.691582 -2.654250 9.457850 186 202 210
-4.691566 -2.654266 9.457836 63 59 59
-4.691516 -2.654269 9.457838 130 129 131
-4.691504 -2.654285 9.457826 63 56 65
-4.691509 -2.654276 9.457845 48 35 28
-4.691509 -2.654276 9.457845 48 35 28
-4.691504 -2.654253 9.457838 44 36 31
-4.691483 -2.654309 9.457801 107 109 108
-4.691495 -2.654303 9.457829 252 253 254
-4.691483 -2.654289 9.457825 255 231 199
-4.691494 -2.654208 9.457858 41 35 30
-4.691472 -2.654288 9.457821 255 169 120
-4.691481 -2.654243 9.457840 79 59 96
-4.691481 -2.654243 9.457840 79 59 96
-4.691467 -2.654300 9.457824 86 83 85
-4.691463 -2.654239 9.457838 255 180 127
-4.691462 -2.654214 9.457843 67 55 46
-4.691350 -2.654335 9.457788 103 109 108
-4.691354 -2.654327 9.457814 124 123 125
-4.691789 -2.654245 9.457857 96 72 61
-4.691786 -2.654218 9.457863 76 65 61
-4.691779 -2.654258 9.457863 167 159 162
-4.691762 -2.654202 9.457853 155 165 171
-4.691728 -2.654192 9.457890 155 163 170
-4.691711 -2.654218 9.457861 167 170 173
-4.691685 -2.654312 9.457832 95 86 85
-4.691680 -2.654222 9.457850 224 233 242
-4.691680 -2.654222 9.457850 224 233 242
-4.691678 -2.654258 9.457850 69 76 92
-4.691678 -2.654258 9.457850 69 76 92
-4.691677 -2.654244 9.457850 38 34 34
-4.691670 -2.654214 9.457857 187 195 202
-4.691653 -2.654181 9.457866 166 176 182
-4.691638 -2.654280 9.457842 120 123 126
-4.691637 -2.654246 9.457854 196 204 211
-4.691617 -2.654293 9.457829 151 155 160
-4.691590 -2.654265 9.457842 176 187 201
-4.691593 -2.654227 9.457855 179 196 202
-4.691582 -2.654250 9.457850 186 202 210
-4.691582 -2.654250 9.457850 186 202 210
-4.691566 -2.654266 9.457836 63 59 59
-4.691516 -2.654269 9.457838 130 129 131
-4.691504 -2.654285 9.457826 63 56 65
-4.691509 -2.654276 9.457845 48 35 28
-4.691509 -2.654276 9.457845 48 35 28
-4.691504 -2.654253 9.457838 44 36 31
-4.691483 -2.654309 9.457801 107 109 108
-4.691495 -2.654303 9.457829 252 253 254
-4.691483 -2.654289 9.457825 255 231 199
-4.691494 -2.654208 9.457858 41 35 30
-4.691472 -2.654288 9.457821 255 169 120
-4.691481 -2.654243 9.457840 79 59 96
-4.691481 -2.654243 9.457840 79 59 96
-4.691467 -2.654300 9.457824 86 83 85
-4.691463 -2.654239 9.457838 255 180 127
-4.691462 -2.654214 9.457843 67 55 46
-4.691350 -2.654335 9.457788 103 109 108
-4.691354 -2.654327 9.457814 124 123 125
